<svg version="1.1" xmlns="http://www.w3.org/2000/svg" xmlns:xlink="http://www.w3.org/1999/xlink" width="22" height="22" viewBox="0,0,256,256"><g fill="none" fill-rule="nonzero" stroke="none" stroke-width="1" stroke-linecap="butt" stroke-linejoin="miter" stroke-miterlimit="10" stroke-dasharray="" stroke-dashoffset="0" font-family="none" font-weight="none" font-size="none" text-anchor="none" style="mix-blend-mode: normal"><g transform="translate(0,-0.00006) scale(11.63636,11.63636)"><path d="M2.75,8.79999c0.01178,-0.55983 0.05707,-1.67089 0.14223,-2.02853c0.43486,-2.01135 1.91155,-3.28932 4.02241,-3.47147h8.17166c2.0927,0.19169 3.5875,1.47824 4.0224,3.47147c0.0842,0.3481 0.1295,1.46775 0.1413,2.02853z" fill-opacity="0.76078" fill="#100f0f"></path><path d="M14.713,16.4248c-0.4166,-0.0086 -0.7517,-0.3367 -0.7517,-0.7337c-0.0091,-0.3971 0.326,-0.7243 0.7426,-0.7329h0.0091c0.4256,0 0.7697,0.328 0.7697,0.7329c0,0.4057 -0.3441,0.7337 -0.7697,0.7337zM11.0181,13.2482c-0.4166,0.0181 -0.7607,-0.2935 -0.7788,-0.6898c0,-0.397 0.326,-0.7251 0.7426,-0.7432c0.4075,0 0.7426,0.303 0.7516,0.6906c0.0181,0.3979 -0.3079,0.726 -0.7154,0.7424zM11.0181,16.3816c-0.4166,0.0182 -0.7607,-0.2935 -0.7788,-0.6905c0,-0.3971 0.326,-0.7243 0.7426,-0.7424c0.4075,0 0.7426,0.303 0.7516,0.6914c0.0181,0.3971 -0.3079,0.7251 -0.7154,0.7415zM7.2961,13.2482c-0.41657,0.0181 -0.7607,-0.2935 -0.77881,-0.6898c0,-0.397 0.32601,-0.7251 0.74259,-0.7432c0.40752,0 0.74259,0.303 0.75165,0.6906c0.01811,0.3979 -0.30791,0.726 -0.71543,0.7424zM7.28705,16.3816c-0.41658,0.0182 -0.76071,-0.2935 -0.77882,-0.6905c0,-0.3971 0.32602,-0.7243 0.74259,-0.7424c0.40752,0 0.74259,0.303 0.75165,0.6914c0.01811,0.3971 -0.3079,0.7251 -0.71542,0.7415zM13.9704,12.5498c0,-0.3971 0.326,-0.7165 0.7426,-0.7251c0.4075,0 0.7335,0.3099 0.7516,0.6906c0.0091,0.3971 -0.317,0.7251 -0.7245,0.7329c-0.4166,0.0086 -0.7607,-0.2935 -0.7697,-0.6898zM2.75,8.79999v6.57171c0,2.7277 1.82931,4.4283 4.70006,4.4283h7.09084c2.8979,0 4.7091,-1.666 4.7091,-4.3757v-6.62431z" fill-opacity="0.18039" fill="#00070d"></path><path d="M2.75,8.79999c0.01178,-0.55983 0.05707,-1.67089 0.14223,-2.02853c0.43486,-2.01135 1.91155,-3.28932 4.02241,-3.47147h8.17166c2.0927,0.19169 3.5875,1.47824 4.0224,3.47147c0.0842,0.3481 0.1295,1.46775 0.1413,2.02853z" fill-opacity="0.18039" fill="#00070d" opacity="0.4"></path><path d="M7.59941,6.23921c0.38253,0 0.66942,-0.28952 0.66942,-0.6776v-2.68312c0,-0.38808 -0.28689,-0.67848 -0.66942,-0.67848c-0.38252,0 -0.66942,0.2904 -0.66942,0.67848v2.68312c0,0.38808 0.2869,0.6776 0.66942,0.6776z" fill-opacity="0.18039" fill="#00070d"></path><path d="M14.3974,6.23921c0.3738,0 0.6694,-0.28952 0.6694,-0.6776v-2.68312c0,-0.38808 -0.2956,-0.67848 -0.6694,-0.67848c-0.3825,0 -0.6694,0.2904 -0.6694,0.67848v2.68312c0,0.38808 0.2869,0.6776 0.6694,0.6776z" fill-opacity="0.18039" fill="#00070d"></path></g></g></svg>