<svg width="223" height="48" viewBox="0 0 223 48" fill="none" xmlns="http://www.w3.org/2000/svg">
<path d="M217.443 20.5C219.404 20.5 221 22.0952 221 24.0558V27.953C221 29.9088 219.408 31.5 217.451 31.5H208.558C206.597 31.5 205 29.9056 205 27.945V24.0478C205 22.092 206.593 20.5 208.55 20.5H209.302L217.443 20.5Z" fill="white"/>
<path opacity="0.25" d="M217.443 20.5C219.404 20.5 221 22.0952 221 24.0558V27.953C221 29.9088 219.408 31.5 217.451 31.5H208.558C206.597 31.5 205 29.9056 205 27.945V24.0478C205 22.092 206.593 20.5 208.55 20.5H209.302L217.443 20.5Z" fill="#1A1926"/>
<path d="M213.437 27.3299L215.764 24.9556C216.004 24.7102 216.004 24.3153 215.763 24.0707C215.521 23.8269 215.131 23.8277 214.891 24.0723L213.617 25.3724V17.1257C213.617 16.7803 213.341 16.5 213 16.5C212.66 16.5 212.385 16.7803 212.385 17.1257V25.3724L211.11 24.0723C210.87 23.8277 210.48 23.8269 210.239 24.0707C210.118 24.1934 210.057 24.3535 210.057 24.5144C210.057 24.6736 210.118 24.8337 210.237 24.9556L212.564 27.3299C212.68 27.4477 212.837 27.5144 213 27.5144C213.164 27.5144 213.321 27.4477 213.437 27.3299Z" fill="#1A1926"/>
<path d="M53.98 19C53.76 19 53.59 18.945 53.47 18.835C53.36 18.715 53.305 18.545 53.305 18.325V9.1C53.305 8.88 53.36 8.715 53.47 8.605C53.59 8.485 53.76 8.425 53.98 8.425H57.535C58.265 8.425 58.88 8.535 59.38 8.755C59.89 8.965 60.28 9.275 60.55 9.685C60.82 10.095 60.955 10.595 60.955 11.185C60.955 11.845 60.76 12.395 60.37 12.835C59.99 13.275 59.47 13.565 58.81 13.705V13.495C59.56 13.585 60.145 13.855 60.565 14.305C60.995 14.755 61.21 15.35 61.21 16.09C61.21 17.03 60.905 17.75 60.295 18.25C59.685 18.75 58.825 19 57.715 19H53.98ZM54.505 18.01H57.595C58.395 18.01 58.995 17.85 59.395 17.53C59.795 17.21 59.995 16.725 59.995 16.075C59.995 15.415 59.795 14.93 59.395 14.62C58.995 14.3 58.395 14.14 57.595 14.14H54.505V18.01ZM54.505 13.15H57.355C58.135 13.15 58.725 12.99 59.125 12.67C59.535 12.35 59.74 11.89 59.74 11.29C59.74 10.67 59.535 10.205 59.125 9.895C58.725 9.575 58.135 9.415 57.355 9.415H54.505V13.15ZM63.8917 19.105C63.6917 19.105 63.5367 19.05 63.4267 18.94C63.3267 18.83 63.2767 18.675 63.2767 18.475V12.22C63.2767 12.02 63.3267 11.87 63.4267 11.77C63.5267 11.66 63.6717 11.605 63.8617 11.605C64.0517 11.605 64.1967 11.66 64.2967 11.77C64.4067 11.87 64.4617 12.02 64.4617 12.22V13.435H64.3117C64.4717 12.845 64.7767 12.39 65.2267 12.07C65.6767 11.75 66.2317 11.58 66.8917 11.56C67.0417 11.55 67.1617 11.585 67.2517 11.665C67.3417 11.735 67.3917 11.86 67.4017 12.04C67.4117 12.21 67.3717 12.345 67.2817 12.445C67.1917 12.545 67.0517 12.605 66.8617 12.625L66.6217 12.655C65.9417 12.715 65.4167 12.935 65.0467 13.315C64.6867 13.685 64.5067 14.195 64.5067 14.845V18.475C64.5067 18.675 64.4517 18.83 64.3417 18.94C64.2417 19.05 64.0917 19.105 63.8917 19.105ZM70.8745 19.135C70.3745 19.135 69.9245 19.04 69.5245 18.85C69.1345 18.65 68.8245 18.38 68.5945 18.04C68.3645 17.7 68.2495 17.32 68.2495 16.9C68.2495 16.36 68.3845 15.935 68.6545 15.625C68.9345 15.315 69.3895 15.095 70.0195 14.965C70.6595 14.835 71.5295 14.77 72.6295 14.77H73.3045V15.565H72.6445C71.8345 15.565 71.1945 15.605 70.7245 15.685C70.2645 15.755 69.9395 15.88 69.7495 16.06C69.5695 16.24 69.4795 16.495 69.4795 16.825C69.4795 17.235 69.6195 17.57 69.8995 17.83C70.1895 18.09 70.5795 18.22 71.0695 18.22C71.4695 18.22 71.8195 18.125 72.1195 17.935C72.4295 17.745 72.6695 17.485 72.8395 17.155C73.0195 16.825 73.1095 16.445 73.1095 16.015V14.305C73.1095 13.685 72.9845 13.24 72.7345 12.97C72.4845 12.69 72.0745 12.55 71.5045 12.55C71.1545 12.55 70.8045 12.595 70.4545 12.685C70.1045 12.775 69.7345 12.92 69.3445 13.12C69.2045 13.19 69.0845 13.215 68.9845 13.195C68.8845 13.165 68.8045 13.11 68.7445 13.03C68.6845 12.95 68.6495 12.86 68.6395 12.76C68.6295 12.65 68.6495 12.545 68.6995 12.445C68.7595 12.345 68.8495 12.265 68.9695 12.205C69.4095 11.985 69.8445 11.825 70.2745 11.725C70.7045 11.625 71.1145 11.575 71.5045 11.575C72.1345 11.575 72.6545 11.68 73.0645 11.89C73.4745 12.09 73.7795 12.4 73.9795 12.82C74.1795 13.23 74.2795 13.76 74.2795 14.41V18.475C74.2795 18.675 74.2295 18.83 74.1295 18.94C74.0395 19.05 73.9045 19.105 73.7245 19.105C73.5345 19.105 73.3895 19.05 73.2895 18.94C73.1895 18.83 73.1395 18.675 73.1395 18.475V17.305H73.2745C73.1945 17.685 73.0395 18.01 72.8095 18.28C72.5895 18.55 72.3145 18.76 71.9845 18.91C71.6545 19.06 71.2845 19.135 70.8745 19.135ZM77.1336 19.105C76.9336 19.105 76.7836 19.05 76.6836 18.94C76.5836 18.83 76.5336 18.675 76.5336 18.475V12.22C76.5336 12.02 76.5836 11.87 76.6836 11.77C76.7836 11.66 76.9286 11.605 77.1186 11.605C77.3086 11.605 77.4536 11.66 77.5536 11.77C77.6636 11.87 77.7186 12.02 77.7186 12.22V13.51L77.5536 13.33C77.7636 12.75 78.1036 12.315 78.5736 12.025C79.0536 11.725 79.6036 11.575 80.2236 11.575C80.8036 11.575 81.2836 11.68 81.6636 11.89C82.0536 12.1 82.3436 12.42 82.5336 12.85C82.7236 13.27 82.8186 13.805 82.8186 14.455V18.475C82.8186 18.675 82.7636 18.83 82.6536 18.94C82.5536 19.05 82.4086 19.105 82.2186 19.105C82.0186 19.105 81.8636 19.05 81.7536 18.94C81.6536 18.83 81.6036 18.675 81.6036 18.475V14.53C81.6036 13.85 81.4686 13.355 81.1986 13.045C80.9386 12.725 80.5186 12.565 79.9386 12.565C79.2686 12.565 78.7336 12.775 78.3336 13.195C77.9436 13.605 77.7486 14.155 77.7486 14.845V18.475C77.7486 18.895 77.5436 19.105 77.1336 19.105ZM87.8339 19.135C87.1839 19.135 86.6139 18.98 86.1239 18.67C85.6439 18.36 85.2689 17.925 84.9989 17.365C84.7389 16.795 84.6089 16.125 84.6089 15.355C84.6089 14.575 84.7389 13.905 84.9989 13.345C85.2689 12.775 85.6439 12.34 86.1239 12.04C86.6139 11.73 87.1839 11.575 87.8339 11.575C88.4939 11.575 89.0589 11.74 89.5289 12.07C89.9989 12.4 90.3139 12.845 90.4739 13.405H90.3089V8.935C90.3089 8.735 90.3589 8.585 90.4589 8.485C90.5689 8.375 90.7239 8.32 90.9239 8.32C91.1139 8.32 91.2589 8.375 91.3589 8.485C91.4689 8.585 91.5239 8.735 91.5239 8.935V18.475C91.5239 18.675 91.4739 18.83 91.3739 18.94C91.2739 19.05 91.1239 19.105 90.9239 19.105C90.7339 19.105 90.5839 19.05 90.4739 18.94C90.3739 18.83 90.3239 18.675 90.3239 18.475V17.05L90.4889 17.26C90.3289 17.83 90.0089 18.285 89.5289 18.625C89.0589 18.965 88.4939 19.135 87.8339 19.135ZM88.0889 18.16C88.5389 18.16 88.9339 18.05 89.2739 17.83C89.6139 17.61 89.8739 17.29 90.0539 16.87C90.2439 16.45 90.3389 15.945 90.3389 15.355C90.3389 14.445 90.1339 13.75 89.7239 13.27C89.3239 12.79 88.7789 12.55 88.0889 12.55C87.6289 12.55 87.2289 12.66 86.8889 12.88C86.5589 13.09 86.2989 13.405 86.1089 13.825C85.9289 14.235 85.8389 14.745 85.8389 15.355C85.8389 16.255 86.0439 16.95 86.4539 17.44C86.8639 17.92 87.4089 18.16 88.0889 18.16ZM101.256 19.135C100.786 19.135 100.326 19.095 99.8763 19.015C99.4263 18.935 99.0063 18.82 98.6163 18.67C98.2363 18.52 97.8913 18.33 97.5813 18.1C97.4613 18.01 97.3763 17.91 97.3263 17.8C97.2863 17.68 97.2763 17.565 97.2963 17.455C97.3263 17.335 97.3763 17.235 97.4463 17.155C97.5263 17.075 97.6213 17.03 97.7313 17.02C97.8413 17.01 97.9613 17.045 98.0913 17.125C98.5413 17.445 99.0213 17.68 99.5313 17.83C100.041 17.97 100.616 18.04 101.256 18.04C102.156 18.04 102.821 17.875 103.251 17.545C103.691 17.205 103.911 16.76 103.911 16.21C103.911 15.76 103.751 15.41 103.431 15.16C103.121 14.9 102.596 14.695 101.856 14.545L100.296 14.23C99.3563 14.03 98.6513 13.705 98.1813 13.255C97.7213 12.795 97.4913 12.185 97.4913 11.425C97.4913 10.955 97.5863 10.53 97.7763 10.15C97.9663 9.76 98.2313 9.43 98.5713 9.16C98.9113 8.88 99.3163 8.665 99.7863 8.515C100.256 8.365 100.776 8.29 101.346 8.29C101.976 8.29 102.561 8.38 103.101 8.56C103.651 8.73 104.146 8.99 104.586 9.34C104.696 9.43 104.771 9.535 104.811 9.655C104.851 9.765 104.856 9.875 104.826 9.985C104.796 10.085 104.741 10.17 104.661 10.24C104.591 10.31 104.496 10.35 104.376 10.36C104.266 10.37 104.141 10.33 104.001 10.24C103.601 9.94 103.186 9.725 102.756 9.595C102.326 9.455 101.851 9.385 101.331 9.385C100.801 9.385 100.341 9.465 99.9513 9.625C99.5713 9.785 99.2713 10.02 99.0513 10.33C98.8413 10.63 98.7362 10.98 98.7362 11.38C98.7362 11.86 98.8813 12.24 99.1713 12.52C99.4713 12.8 99.9563 13.005 100.626 13.135L102.186 13.465C103.196 13.675 103.941 13.995 104.421 14.425C104.911 14.845 105.156 15.42 105.156 16.15C105.156 16.59 105.066 16.995 104.886 17.365C104.706 17.735 104.446 18.055 104.106 18.325C103.766 18.585 103.356 18.785 102.876 18.925C102.396 19.065 101.856 19.135 101.256 19.135ZM109.795 19.135C109.225 19.135 108.745 19.035 108.355 18.835C107.975 18.625 107.69 18.325 107.5 17.935C107.31 17.535 107.215 17.05 107.215 16.48V12.655H106.21C106.04 12.655 105.91 12.615 105.82 12.535C105.73 12.445 105.685 12.325 105.685 12.175C105.685 12.025 105.73 11.91 105.82 11.83C105.91 11.75 106.04 11.71 106.21 11.71H107.215V9.985C107.215 9.785 107.27 9.635 107.38 9.535C107.49 9.425 107.64 9.37 107.83 9.37C108.02 9.37 108.165 9.425 108.265 9.535C108.375 9.635 108.43 9.785 108.43 9.985V11.71H110.32C110.49 11.71 110.62 11.75 110.71 11.83C110.8 11.91 110.845 12.025 110.845 12.175C110.845 12.325 110.8 12.445 110.71 12.535C110.62 12.615 110.49 12.655 110.32 12.655H108.43V16.36C108.43 16.93 108.55 17.365 108.79 17.665C109.03 17.955 109.42 18.1 109.96 18.1C110.15 18.1 110.31 18.08 110.44 18.04C110.58 18 110.695 17.98 110.785 17.98C110.875 17.97 110.95 18 111.01 18.07C111.07 18.14 111.1 18.26 111.1 18.43C111.1 18.55 111.075 18.66 111.025 18.76C110.985 18.86 110.91 18.93 110.8 18.97C110.68 19.01 110.52 19.045 110.32 19.075C110.13 19.115 109.955 19.135 109.795 19.135ZM113.823 21.805C113.673 21.805 113.553 21.765 113.463 21.685C113.373 21.605 113.318 21.495 113.298 21.355C113.288 21.225 113.313 21.09 113.373 20.95L114.408 18.625V19.15L111.528 12.46C111.468 12.31 111.448 12.17 111.468 12.04C111.488 11.91 111.548 11.805 111.648 11.725C111.748 11.645 111.888 11.605 112.068 11.605C112.228 11.605 112.353 11.64 112.443 11.71C112.533 11.78 112.613 11.905 112.683 12.085L115.143 18.115H114.738L117.228 12.085C117.308 11.905 117.393 11.78 117.483 11.71C117.573 11.64 117.703 11.605 117.873 11.605C118.033 11.605 118.153 11.645 118.233 11.725C118.323 11.805 118.373 11.91 118.383 12.04C118.403 12.16 118.383 12.295 118.323 12.445L114.483 21.325C114.403 21.505 114.313 21.63 114.213 21.7C114.123 21.77 113.993 21.805 113.823 21.805ZM122.128 19.135C121.408 19.135 120.858 18.915 120.478 18.475C120.098 18.035 119.908 17.405 119.908 16.585V8.935C119.908 8.735 119.958 8.585 120.058 8.485C120.158 8.375 120.308 8.32 120.508 8.32C120.698 8.32 120.848 8.375 120.958 8.485C121.068 8.585 121.123 8.735 121.123 8.935V16.495C121.123 17.035 121.228 17.44 121.438 17.71C121.658 17.97 121.978 18.1 122.398 18.1C122.488 18.1 122.568 18.095 122.638 18.085C122.708 18.075 122.778 18.07 122.848 18.07C122.958 18.06 123.033 18.085 123.073 18.145C123.123 18.205 123.148 18.325 123.148 18.505C123.148 18.685 123.108 18.82 123.028 18.91C122.948 19 122.818 19.06 122.638 19.09C122.558 19.1 122.473 19.11 122.383 19.12C122.293 19.13 122.208 19.135 122.128 19.135ZM127.558 19.135C126.788 19.135 126.123 18.985 125.563 18.685C125.013 18.375 124.583 17.94 124.273 17.38C123.973 16.82 123.823 16.15 123.823 15.37C123.823 14.61 123.973 13.95 124.273 13.39C124.573 12.82 124.983 12.375 125.503 12.055C126.033 11.735 126.643 11.575 127.333 11.575C127.823 11.575 128.263 11.66 128.653 11.83C129.043 11.99 129.373 12.225 129.643 12.535C129.923 12.845 130.133 13.22 130.273 13.66C130.423 14.1 130.498 14.595 130.498 15.145C130.498 15.305 130.453 15.425 130.363 15.505C130.273 15.575 130.143 15.61 129.973 15.61H124.753V14.815H129.688L129.448 15.01C129.448 14.47 129.368 14.015 129.208 13.645C129.048 13.265 128.813 12.975 128.503 12.775C128.203 12.575 127.823 12.475 127.363 12.475C126.853 12.475 126.418 12.595 126.058 12.835C125.708 13.065 125.443 13.39 125.263 13.81C125.083 14.22 124.993 14.7 124.993 15.25V15.34C124.993 16.26 125.213 16.96 125.653 17.44C126.103 17.92 126.738 18.16 127.558 18.16C127.898 18.16 128.233 18.115 128.563 18.025C128.903 17.935 129.233 17.785 129.553 17.575C129.693 17.485 129.818 17.445 129.928 17.455C130.048 17.455 130.143 17.49 130.213 17.56C130.283 17.62 130.328 17.7 130.348 17.8C130.378 17.89 130.368 17.99 130.318 18.1C130.278 18.21 130.193 18.305 130.063 18.385C129.733 18.625 129.343 18.81 128.893 18.94C128.443 19.07 127.998 19.135 127.558 19.135ZM134.716 19.135C134.266 19.135 133.811 19.08 133.351 18.97C132.901 18.86 132.481 18.67 132.091 18.4C131.991 18.33 131.921 18.25 131.881 18.16C131.841 18.06 131.826 17.965 131.836 17.875C131.856 17.775 131.896 17.69 131.956 17.62C132.026 17.55 132.106 17.51 132.196 17.5C132.296 17.48 132.406 17.5 132.526 17.56C132.916 17.8 133.291 17.97 133.651 18.07C134.021 18.16 134.386 18.205 134.746 18.205C135.316 18.205 135.746 18.1 136.036 17.89C136.326 17.68 136.471 17.395 136.471 17.035C136.471 16.755 136.376 16.535 136.186 16.375C135.996 16.205 135.696 16.075 135.286 15.985L133.921 15.685C133.291 15.555 132.821 15.33 132.511 15.01C132.211 14.69 132.061 14.275 132.061 13.765C132.061 13.315 132.176 12.93 132.406 12.61C132.646 12.28 132.981 12.025 133.411 11.845C133.841 11.665 134.341 11.575 134.911 11.575C135.351 11.575 135.766 11.635 136.156 11.755C136.556 11.865 136.916 12.045 137.236 12.295C137.336 12.365 137.401 12.45 137.431 12.55C137.471 12.64 137.476 12.735 137.446 12.835C137.426 12.925 137.381 13.005 137.311 13.075C137.241 13.135 137.156 13.17 137.056 13.18C136.956 13.19 136.851 13.16 136.741 13.09C136.441 12.89 136.136 12.745 135.826 12.655C135.516 12.555 135.211 12.505 134.911 12.505C134.351 12.505 133.926 12.615 133.636 12.835C133.346 13.055 133.201 13.345 133.201 13.705C133.201 13.985 133.291 14.215 133.471 14.395C133.651 14.575 133.931 14.705 134.311 14.785L135.676 15.07C136.326 15.21 136.811 15.435 137.131 15.745C137.461 16.045 137.626 16.455 137.626 16.975C137.626 17.635 137.361 18.16 136.831 18.55C136.301 18.94 135.596 19.135 134.716 19.135ZM148.34 19.135C147.21 19.135 146.255 18.92 145.475 18.49C144.705 18.06 144.12 17.44 143.72 16.63C143.32 15.82 143.12 14.85 143.12 13.72C143.12 12.88 143.23 12.125 143.45 11.455C143.68 10.785 144.01 10.22 144.44 9.76C144.88 9.29 145.41 8.93 146.03 8.68C146.66 8.42 147.37 8.29 148.16 8.29C148.79 8.29 149.4 8.38 149.99 8.56C150.58 8.73 151.105 9.005 151.565 9.385C151.685 9.475 151.76 9.575 151.79 9.685C151.82 9.795 151.815 9.905 151.775 10.015C151.745 10.125 151.69 10.22 151.61 10.3C151.54 10.37 151.445 10.41 151.325 10.42C151.215 10.43 151.1 10.395 150.98 10.315C150.57 9.995 150.135 9.765 149.675 9.625C149.215 9.475 148.705 9.4 148.145 9.4C147.345 9.4 146.665 9.57 146.105 9.91C145.555 10.25 145.135 10.74 144.845 11.38C144.565 12.02 144.425 12.8 144.425 13.72C144.425 15.12 144.75 16.19 145.4 16.93C146.06 17.67 147.05 18.04 148.37 18.04C148.85 18.04 149.32 17.995 149.78 17.905C150.24 17.805 150.675 17.67 151.085 17.5L150.815 18.205V14.47H148.67C148.49 14.47 148.355 14.425 148.265 14.335C148.175 14.245 148.13 14.125 148.13 13.975C148.13 13.815 148.175 13.695 148.265 13.615C148.355 13.535 148.49 13.495 148.67 13.495H151.355C151.525 13.495 151.655 13.54 151.745 13.63C151.835 13.72 151.88 13.85 151.88 14.02V17.935C151.88 18.085 151.855 18.21 151.805 18.31C151.755 18.41 151.67 18.485 151.55 18.535C151.13 18.705 150.625 18.85 150.035 18.97C149.455 19.08 148.89 19.135 148.34 19.135ZM156.809 19.135C156.219 19.135 155.729 19.03 155.339 18.82C154.959 18.6 154.669 18.275 154.469 17.845C154.279 17.415 154.184 16.88 154.184 16.24V12.22C154.184 12.01 154.234 11.855 154.334 11.755C154.444 11.655 154.594 11.605 154.784 11.605C154.984 11.605 155.134 11.655 155.234 11.755C155.344 11.855 155.399 12.01 155.399 12.22V16.225C155.399 16.865 155.529 17.345 155.789 17.665C156.059 17.975 156.479 18.13 157.049 18.13C157.669 18.13 158.174 17.92 158.564 17.5C158.954 17.08 159.149 16.53 159.149 15.85V12.22C159.149 12.01 159.199 11.855 159.299 11.755C159.409 11.655 159.564 11.605 159.764 11.605C159.954 11.605 160.099 11.655 160.199 11.755C160.309 11.855 160.364 12.01 160.364 12.22V18.475C160.364 18.895 160.169 19.105 159.779 19.105C159.589 19.105 159.439 19.05 159.329 18.94C159.229 18.83 159.179 18.675 159.179 18.475V17.11L159.374 17.32C159.174 17.91 158.844 18.36 158.384 18.67C157.934 18.98 157.409 19.135 156.809 19.135ZM163.237 19.075C163.037 19.075 162.887 19.02 162.787 18.91C162.687 18.79 162.637 18.625 162.637 18.415V12.28C162.637 12.07 162.687 11.91 162.787 11.8C162.887 11.69 163.037 11.635 163.237 11.635C163.427 11.635 163.577 11.69 163.687 11.8C163.797 11.91 163.852 12.07 163.852 12.28V18.415C163.852 18.625 163.797 18.79 163.687 18.91C163.587 19.02 163.437 19.075 163.237 19.075ZM163.237 9.955C162.987 9.955 162.792 9.89 162.652 9.76C162.512 9.62 162.442 9.435 162.442 9.205C162.442 8.965 162.512 8.785 162.652 8.665C162.792 8.535 162.987 8.47 163.237 8.47C163.497 8.47 163.692 8.535 163.822 8.665C163.962 8.785 164.032 8.965 164.032 9.205C164.032 9.435 163.962 9.62 163.822 9.76C163.692 9.89 163.497 9.955 163.237 9.955ZM168.898 19.135C168.248 19.135 167.678 18.98 167.188 18.67C166.708 18.36 166.333 17.925 166.063 17.365C165.803 16.795 165.673 16.125 165.673 15.355C165.673 14.575 165.803 13.905 166.063 13.345C166.333 12.775 166.708 12.34 167.188 12.04C167.678 11.73 168.248 11.575 168.898 11.575C169.558 11.575 170.123 11.74 170.593 12.07C171.063 12.4 171.378 12.845 171.538 13.405H171.373V8.935C171.373 8.735 171.423 8.585 171.523 8.485C171.633 8.375 171.788 8.32 171.988 8.32C172.178 8.32 172.323 8.375 172.423 8.485C172.533 8.585 172.588 8.735 172.588 8.935V18.475C172.588 18.675 172.538 18.83 172.438 18.94C172.338 19.05 172.188 19.105 171.988 19.105C171.798 19.105 171.648 19.05 171.538 18.94C171.438 18.83 171.388 18.675 171.388 18.475V17.05L171.553 17.26C171.393 17.83 171.073 18.285 170.593 18.625C170.123 18.965 169.558 19.135 168.898 19.135ZM169.153 18.16C169.603 18.16 169.998 18.05 170.338 17.83C170.678 17.61 170.938 17.29 171.118 16.87C171.308 16.45 171.403 15.945 171.403 15.355C171.403 14.445 171.198 13.75 170.788 13.27C170.388 12.79 169.843 12.55 169.153 12.55C168.693 12.55 168.293 12.66 167.953 12.88C167.623 13.09 167.363 13.405 167.173 13.825C166.993 14.235 166.903 14.745 166.903 15.355C166.903 16.255 167.108 16.95 167.518 17.44C167.928 17.92 168.473 18.16 169.153 18.16ZM178.154 19.135C177.384 19.135 176.719 18.985 176.159 18.685C175.609 18.375 175.179 17.94 174.869 17.38C174.569 16.82 174.419 16.15 174.419 15.37C174.419 14.61 174.569 13.95 174.869 13.39C175.169 12.82 175.579 12.375 176.099 12.055C176.629 11.735 177.239 11.575 177.929 11.575C178.419 11.575 178.859 11.66 179.249 11.83C179.639 11.99 179.969 12.225 180.239 12.535C180.519 12.845 180.729 13.22 180.869 13.66C181.019 14.1 181.094 14.595 181.094 15.145C181.094 15.305 181.049 15.425 180.959 15.505C180.869 15.575 180.739 15.61 180.569 15.61H175.349V14.815H180.284L180.044 15.01C180.044 14.47 179.964 14.015 179.804 13.645C179.644 13.265 179.409 12.975 179.099 12.775C178.799 12.575 178.419 12.475 177.959 12.475C177.449 12.475 177.014 12.595 176.654 12.835C176.304 13.065 176.039 13.39 175.859 13.81C175.679 14.22 175.589 14.7 175.589 15.25V15.34C175.589 16.26 175.809 16.96 176.249 17.44C176.699 17.92 177.334 18.16 178.154 18.16C178.494 18.16 178.829 18.115 179.159 18.025C179.499 17.935 179.829 17.785 180.149 17.575C180.289 17.485 180.414 17.445 180.524 17.455C180.644 17.455 180.739 17.49 180.809 17.56C180.879 17.62 180.924 17.7 180.944 17.8C180.974 17.89 180.964 17.99 180.914 18.1C180.874 18.21 180.789 18.305 180.659 18.385C180.329 18.625 179.939 18.81 179.489 18.94C179.039 19.07 178.594 19.135 178.154 19.135Z" fill="#1A1926"/>
<path d="M56.41 40.126C55.878 40.126 55.346 40.0467 54.814 39.888C54.2913 39.7293 53.8153 39.482 53.386 39.146C53.274 39.0713 53.1993 38.9827 53.162 38.88C53.1247 38.7773 53.12 38.6747 53.148 38.572C53.176 38.4693 53.2273 38.3853 53.302 38.32C53.3767 38.2453 53.4653 38.2033 53.568 38.194C53.68 38.1847 53.7967 38.222 53.918 38.306C54.3007 38.5767 54.6973 38.7773 55.108 38.908C55.5187 39.0387 55.948 39.104 56.396 39.104C56.8533 39.104 57.2453 39.02 57.572 38.852C57.908 38.6747 58.16 38.432 58.328 38.124C58.5053 37.8067 58.594 37.438 58.594 37.018C58.594 36.374 58.4073 35.8467 58.034 35.436C57.6607 35.0253 57.1473 34.82 56.494 34.82C56.0927 34.82 55.724 34.8947 55.388 35.044C55.052 35.1933 54.744 35.4313 54.464 35.758C54.3987 35.8327 54.3193 35.898 54.226 35.954C54.142 36.0007 54.044 36.024 53.932 36.024C53.7733 36.024 53.6473 35.982 53.554 35.898C53.47 35.8047 53.428 35.6833 53.428 35.534V30.662C53.428 30.4847 53.4747 30.354 53.568 30.27C53.6613 30.1767 53.792 30.13 53.96 30.13H58.72C58.8973 30.13 59.028 30.172 59.112 30.256C59.2053 30.34 59.252 30.4613 59.252 30.62C59.252 30.7787 59.2053 30.9 59.112 30.984C59.028 31.068 58.8973 31.11 58.72 31.11H54.562V35.044H54.254C54.4967 34.652 54.8327 34.3533 55.262 34.148C55.6913 33.9333 56.172 33.826 56.704 33.826C57.3293 33.826 57.866 33.9567 58.314 34.218C58.7713 34.4793 59.1213 34.848 59.364 35.324C59.616 35.7907 59.742 36.3367 59.742 36.962C59.742 37.578 59.6067 38.124 59.336 38.6C59.0653 39.076 58.6827 39.4493 58.188 39.72C57.6933 39.9907 57.1007 40.126 56.41 40.126ZM62.7465 40.098C62.6159 40.098 62.5039 40.0653 62.4105 40C62.3172 39.9347 62.2565 39.846 62.2285 39.734C62.2099 39.6127 62.2379 39.482 62.3125 39.342L66.8065 30.62V31.124H61.7665C61.5985 31.124 61.4679 31.082 61.3745 30.998C61.2812 30.9047 61.2345 30.7787 61.2345 30.62C61.2345 30.4613 61.2812 30.34 61.3745 30.256C61.4679 30.172 61.5985 30.13 61.7665 30.13H67.3245C67.4925 30.13 67.6279 30.172 67.7305 30.256C67.8332 30.34 67.8845 30.4613 67.8845 30.62C67.8845 30.7507 67.8659 30.8673 67.8285 30.97C67.8005 31.0633 67.7585 31.1707 67.7025 31.292L63.3905 39.706C63.3252 39.8367 63.2412 39.9347 63.1385 40C63.0359 40.0653 62.9052 40.098 62.7465 40.098ZM72.9891 40.126C71.8597 40.126 71.0011 39.692 70.4131 38.824C69.8251 37.956 69.5311 36.7007 69.5311 35.058C69.5311 33.9567 69.6617 33.0327 69.9231 32.286C70.1844 31.53 70.5717 30.9607 71.0851 30.578C71.6077 30.1953 72.2424 30.004 72.9891 30.004C74.1277 30.004 74.9864 30.4333 75.5651 31.292C76.1531 32.1413 76.4471 33.392 76.4471 35.044C76.4471 36.1453 76.3164 37.074 76.0551 37.83C75.7937 38.586 75.4064 39.16 74.8931 39.552C74.3797 39.9347 73.7451 40.126 72.9891 40.126ZM72.9891 39.132C73.7731 39.132 74.3517 38.8007 74.7251 38.138C75.1077 37.466 75.2991 36.4347 75.2991 35.044C75.2991 33.644 75.1077 32.622 74.7251 31.978C74.3517 31.3247 73.7731 30.998 72.9891 30.998C72.2144 30.998 71.6357 31.3247 71.2531 31.978C70.8704 32.6313 70.6791 33.6533 70.6791 35.044C70.6791 36.4347 70.8704 37.466 71.2531 38.138C71.6357 38.8007 72.2144 39.132 72.9891 39.132ZM82.585 40.098C82.3983 40.098 82.2536 40.0467 82.151 39.944C82.0576 39.832 82.011 39.6827 82.011 39.496V30.62C82.011 30.424 82.0576 30.2793 82.151 30.186C82.2536 30.0833 82.3983 30.032 82.585 30.032C82.7716 30.032 82.9116 30.0833 83.005 30.186C83.1076 30.2793 83.159 30.424 83.159 30.62V34.61H83.187L87.751 30.354C87.863 30.242 87.975 30.1627 88.087 30.116C88.199 30.06 88.3203 30.032 88.451 30.032C88.6283 30.032 88.7543 30.074 88.829 30.158C88.913 30.242 88.9456 30.3447 88.927 30.466C88.9083 30.5873 88.843 30.704 88.731 30.816L83.957 35.24L83.971 34.624L88.955 39.23C89.095 39.3607 89.1696 39.496 89.179 39.636C89.1883 39.7667 89.1463 39.8787 89.053 39.972C88.969 40.056 88.8383 40.098 88.661 40.098C88.521 40.098 88.3996 40.0653 88.297 40C88.2036 39.944 88.0963 39.8553 87.975 39.734L83.187 35.352H83.159V39.496C83.159 39.6827 83.1123 39.832 83.019 39.944C82.9256 40.0467 82.781 40.098 82.585 40.098ZM91.391 40C91.1856 40 91.027 39.9487 90.915 39.846C90.8123 39.734 90.761 39.5753 90.761 39.37V30.76C90.761 30.5547 90.8123 30.4007 90.915 30.298C91.027 30.186 91.1856 30.13 91.391 30.13H94.709C95.3903 30.13 95.9643 30.2327 96.431 30.438C96.907 30.634 97.271 30.9233 97.523 31.306C97.775 31.6887 97.901 32.1553 97.901 32.706C97.901 33.322 97.719 33.8353 97.355 34.246C97.0003 34.6567 96.515 34.9273 95.899 35.058V34.862C96.599 34.946 97.145 35.198 97.537 35.618C97.9383 36.038 98.139 36.5933 98.139 37.284C98.139 38.1613 97.8543 38.8333 97.285 39.3C96.7156 39.7667 95.913 40 94.877 40H91.391ZM91.881 39.076H94.765C95.5116 39.076 96.0716 38.9267 96.445 38.628C96.8183 38.3293 97.005 37.8767 97.005 37.27C97.005 36.654 96.8183 36.2013 96.445 35.912C96.0716 35.6133 95.5116 35.464 94.765 35.464H91.881V39.076ZM91.881 34.54H94.541C95.269 34.54 95.8196 34.3907 96.193 34.092C96.5756 33.7933 96.767 33.364 96.767 32.804C96.767 32.2253 96.5756 31.7913 96.193 31.502C95.8196 31.2033 95.269 31.054 94.541 31.054H91.881V34.54Z" fill="#637085"/>
<g clip-path="url(#clip0_1619_1752)">
<path d="M0 9.6C0 6.23969 0 4.55953 0.653961 3.27606C1.2292 2.14708 2.14708 1.2292 3.27606 0.653961C4.55953 0 6.23969 0 9.6 0H24.0141C24.8947 0 25.3349 0 25.7492 0.0994683C26.1166 0.187657 26.4677 0.333112 26.7898 0.530495C27.1531 0.753126 27.4644 1.06444 28.0871 1.68707L34.3129 7.91294C34.9356 8.53556 35.2469 8.84688 35.4695 9.21017C35.6669 9.53228 35.8123 9.88344 35.9005 10.2508C36 10.6651 36 11.1053 36 11.9859V38.4C36 41.7603 36 43.4405 35.346 44.7239C34.7708 45.8529 33.8529 46.7708 32.7239 47.346C31.4405 48 29.7603 48 26.4 48H9.6C6.23969 48 4.55953 48 3.27606 47.346C2.14708 46.7708 1.2292 45.8529 0.653961 44.7239C0 43.4405 0 41.7603 0 38.4V9.6Z" fill="#FF6640"/>
<path d="M0 9.6C0 6.23969 0 4.55953 0.653961 3.27606C1.2292 2.14708 2.14708 1.2292 3.27606 0.653961C4.55953 0 6.23969 0 9.6 0H24.0141C24.8947 0 25.3349 0 25.7492 0.0994683C26.1166 0.187657 26.4677 0.333112 26.7898 0.530495C27.1531 0.753126 27.4644 1.06444 28.0871 1.68707L34.3129 7.91294C34.9356 8.53556 35.2469 8.84688 35.4695 9.21017C35.6669 9.53228 35.8123 9.88344 35.9005 10.2508C36 10.6651 36 11.1053 36 11.9859V38.4C36 41.7603 36 43.4405 35.346 44.7239C34.7708 45.8529 33.8529 46.7708 32.7239 47.346C31.4405 48 29.7603 48 26.4 48H9.6C6.23969 48 4.55953 48 3.27606 47.346C2.14708 46.7708 1.2292 45.8529 0.653961 44.7239C0 43.4405 0 41.7603 0 38.4V9.6Z" fill="url(#paint0_linear_1619_1752)"/>
<path d="M24.6 10.2031V3.54145C24.6 2.9 25.3755 2.57876 25.8291 3.03233L32.9708 10.1739C33.4244 10.6275 33.1032 11.4031 32.4617 11.4031H25.8C25.1372 11.4031 24.6 10.8658 24.6 10.2031Z" fill="white"/>
<g filter="url(#filter0_d_1619_1752)">
<path d="M10.6343 36C10.363 36 10.1025 35.9179 9.88024 35.763C9.06845 35.1954 8.95927 34.5638 9.01074 34.1335C9.15267 32.9502 10.7224 31.7117 13.678 30.4499C14.8508 28.0543 15.9668 25.1026 16.6319 22.6365C15.8537 21.0578 15.0972 19.0096 15.6486 17.8081C15.842 17.3873 16.0829 17.0646 16.5329 16.925C16.7107 16.8698 17.1599 16.8 17.3252 16.8C17.7182 16.8 18.0637 17.2717 18.3086 17.5624C18.5386 17.8357 19.0603 18.415 18.0177 22.5063C19.0689 24.5298 20.5583 26.5911 21.9854 28.0027C23.0078 27.8304 23.8874 27.7424 24.6041 27.7424C25.8253 27.7424 26.5653 28.0077 26.8671 28.5543C27.1166 29.0064 27.0145 29.5348 26.563 30.1243C26.1286 30.6905 25.5297 30.9899 24.8318 30.9899C23.8835 30.9899 22.7793 30.4317 21.5479 29.3291C19.3356 29.7601 16.752 30.5291 14.6637 31.3802C14.0117 32.6696 13.3871 33.7083 12.8054 34.47C12.006 35.513 11.3167 36 10.6343 36ZM12.7102 32.2742C11.0437 33.1472 10.3645 33.8646 10.3154 34.2687C10.3076 34.3355 10.2865 34.5114 10.6515 34.7716C10.7677 34.7375 11.4461 34.4489 12.7102 32.2742ZM23.3446 29.0457C23.9802 29.5014 24.1354 29.7318 24.551 29.7318C24.7335 29.7318 25.2536 29.7245 25.4946 29.4113C25.6108 29.2593 25.656 29.162 25.674 29.1096C25.5781 29.0624 25.4509 28.9664 24.7577 28.9664C24.3639 28.9672 23.8687 28.9831 23.3446 29.0457ZM17.5194 24.2616C16.9618 26.0598 16.2257 28.0012 15.4341 29.7594C17.064 29.1699 18.8357 28.6553 20.4999 28.2912C19.4471 27.1515 18.3951 25.7284 17.5194 24.2616ZM17.046 18.1112C16.9696 18.1352 16.0089 19.3882 17.1209 20.4487C17.8609 18.9114 17.0796 18.101 17.046 18.1112Z" fill="white"/>
</g>
</g>
<defs>
<filter id="filter0_d_1619_1752" x="5" y="16.8" width="26" height="27.2" filterUnits="userSpaceOnUse" color-interpolation-filters="sRGB">
<feFlood flood-opacity="0" result="BackgroundImageFix"/>
<feColorMatrix in="SourceAlpha" type="matrix" values="0 0 0 0 0 0 0 0 0 0 0 0 0 0 0 0 0 0 127 0" result="hardAlpha"/>
<feOffset dy="4"/>
<feGaussianBlur stdDeviation="2"/>
<feComposite in2="hardAlpha" operator="out"/>
<feColorMatrix type="matrix" values="0 0 0 0 0 0 0 0 0 0 0 0 0 0 0 0 0 0 0.05 0"/>
<feBlend mode="normal" in2="BackgroundImageFix" result="effect1_dropShadow_1619_1752"/>
<feBlend mode="normal" in="SourceGraphic" in2="effect1_dropShadow_1619_1752" result="shape"/>
</filter>
<linearGradient id="paint0_linear_1619_1752" x1="1.8" y1="3.71039e-07" x2="34.8" y2="48" gradientUnits="userSpaceOnUse">
<stop stop-color="#FF8B52"/>
<stop offset="1" stop-color="#F75931"/>
</linearGradient>
<clipPath id="clip0_1619_1752">
<rect width="36" height="48" fill="white"/>
</clipPath>
</defs>
</svg>
