<svg width="48" height="48" viewBox="0 0 48 48" fill="none" xmlns="http://www.w3.org/2000/svg">
<circle cx="24.0007" cy="24" r="24" fill="url(#paint0_radial_1324_1990)"/>
<mask id="mask0_1324_1990" style="mask-type:alpha" maskUnits="userSpaceOnUse" x="0" y="0" width="49" height="48">
<circle cx="24.0007" cy="24" r="24" fill="#C4C4C4"/>
</mask>
<g mask="url(#mask0_1324_1990)">
<path d="M36.3087 38.4691L29.7211 36.5316C28.9231 36.297 28.3751 35.5645 28.3751 34.7327V31.7605H19.6246V34.7327C19.6246 35.5645 19.0766 36.2969 18.2786 36.5316L11.6911 38.4691C10.0951 38.9385 8.99902 40.4033 8.99902 42.0669V46.7613C8.99902 47.7969 9.83853 48.6364 10.8741 48.6364H37.1256C38.1612 48.6364 39.0007 47.7969 39.0007 46.7613V42.0669C39.0007 40.4033 37.9047 38.9385 36.3087 38.4691Z" fill="#E3AA75"/>
<path d="M36.3087 38.469L29.7211 36.5316C29.6098 36.4988 29.5046 36.4543 29.4038 36.4032L23.9996 37.3857L18.5959 36.4032C18.4951 36.4543 18.39 36.4988 18.2786 36.5316L11.6911 38.469C10.095 38.9385 8.99902 40.4032 8.99902 42.0669V46.7613C8.99902 47.7968 9.83853 48.6363 10.8741 48.6363H37.1256C38.1612 48.6363 39.0007 47.7968 39.0007 46.7612V42.0668C39.0007 40.4032 37.9047 38.9385 36.3087 38.469Z" fill="url(#paint1_linear_1324_1990)"/>
<path d="M16.6074 37.9639L19.7044 40.6185C20.1572 41.0066 20.7348 41.2204 21.3307 41.2204C22.0948 41.2204 22.8067 40.8784 23.2837 40.2821L23.9999 39.3869L24.716 40.282C25.1931 40.8784 25.9049 41.2203 26.6691 41.2203C27.265 41.2203 27.8425 41.0066 28.2954 40.6184L31.3924 37.9639C31.6435 37.7485 31.8165 37.4738 31.9134 37.1763L29.7211 36.5316C29.6098 36.4988 29.5046 36.4543 29.4038 36.4032L23.9996 37.3857L18.5959 36.4032C18.4952 36.4543 18.39 36.4988 18.2786 36.5316L16.0863 37.1763C16.1833 37.4738 16.3562 37.7486 16.6074 37.9639Z" fill="url(#paint2_linear_1324_1990)"/>
<path d="M19.6246 33.1553C20.9378 33.8567 22.4269 34.2607 23.9999 34.2607C25.5729 34.2607 27.062 33.8567 28.3752 33.1553V31.7605H19.6246V33.1553Z" fill="#D29B6E"/>
<path d="M32.4378 22.385H32.1253V15.5096H15.8744V22.385H15.5619C14.6989 22.385 13.9993 23.0846 13.9993 23.9476C13.9993 24.8106 14.6989 25.5102 15.5619 25.5102H15.906C16.2262 29.7047 19.7233 33.0105 23.9999 33.0105C28.2764 33.0105 31.7736 29.7047 32.0937 25.5102H32.4378C33.3008 25.5102 34.0004 24.8106 34.0004 23.9476C34.0004 23.0846 33.3009 22.385 32.4378 22.385Z" fill="url(#paint3_linear_1324_1990)"/>
<path d="M29.6252 16.7597V15.5096H15.8744V22.385H15.6511C14.8337 22.385 14.0889 22.973 14.0075 23.7863C13.9138 24.7217 14.6458 25.5101 15.562 25.5101H15.9061C16.2262 29.7046 19.7234 33.0105 23.9999 33.0105C24.4275 33.0105 24.8444 32.9688 25.2539 32.9051C21.3595 32.3041 18.3746 28.9476 18.3746 24.885V20.5097C18.3746 19.1289 19.4939 18.0095 20.8748 18.0095H28.3751C29.0655 18.0098 29.6252 17.4501 29.6252 16.7597Z" fill="url(#paint4_linear_1324_1990)"/>
<path d="M23.9999 37.3859L18.9452 34.5777C18.6342 34.4048 18.2418 34.5262 18.0826 34.8445L17.2991 36.4116C17.1964 36.6169 17.2467 36.8656 17.4209 37.0149L20.5179 39.6694C21.0547 40.1295 21.8659 40.0533 22.3075 39.5012L23.9999 37.3859Z" fill="url(#paint5_linear_1324_1990)"/>
<path d="M23.9999 37.3858L29.0546 34.5776C29.3657 34.4048 29.758 34.5262 29.9172 34.8445L30.7007 36.4116C30.8034 36.6168 30.7531 36.8655 30.5789 37.0148L27.4819 39.6694C26.9451 40.1295 26.1339 40.0533 25.6923 39.5012L23.9999 37.3858Z" fill="url(#paint6_linear_1324_1990)"/>
<path d="M20.2497 24.3144C19.9042 24.3144 19.6246 24.0345 19.6246 23.6893V23.0643C19.6246 22.7192 19.9042 22.4393 20.2497 22.4393C20.5951 22.4393 20.8747 22.7192 20.8747 23.0643V23.6893C20.8747 24.0346 20.5952 24.3144 20.2497 24.3144Z" fill="url(#paint7_radial_1324_1990)"/>
<path d="M27.7501 24.3143C27.4047 24.3143 27.1251 24.0344 27.1251 23.6893V23.0642C27.1251 22.7191 27.4047 22.4392 27.7501 22.4392C28.0956 22.4392 28.3752 22.7191 28.3752 23.0642V23.6893C28.3752 24.0345 28.0956 24.3143 27.7501 24.3143Z" fill="url(#paint8_radial_1324_1990)"/>
<path d="M20.8747 21.7598H19.6246C19.2792 21.7598 18.9996 21.4799 18.9996 21.1347C18.9996 20.7896 19.2792 20.5097 19.6246 20.5097H20.8747C21.2201 20.5097 21.4997 20.7896 21.4997 21.1347C21.4997 21.4799 21.2202 21.7598 20.8747 21.7598Z" fill="url(#paint9_linear_1324_1990)"/>
<path d="M28.3752 21.7598H27.1251C26.7796 21.7598 26.5001 21.4799 26.5001 21.1347C26.5001 20.7896 26.7796 20.5097 27.1251 20.5097H28.3752C28.7206 20.5097 29.0002 20.7896 29.0002 21.1347C29.0002 21.4799 28.7206 21.7598 28.3752 21.7598Z" fill="url(#paint10_linear_1324_1990)"/>
<path d="M21.5288 26.4996C21.332 26.4996 21.1858 26.6795 21.2185 26.8735C21.4215 28.077 22.5895 28.9998 23.9999 28.9998C25.4103 28.9998 26.5783 28.077 26.7813 26.8735C26.814 26.6795 26.6678 26.4996 26.471 26.4996H21.5288Z" fill="white"/>
<path d="M23.9999 43.0112C24.3451 43.0112 24.625 42.7313 24.625 42.3861C24.625 42.0409 24.3451 41.7611 23.9999 41.7611C23.6547 41.7611 23.3749 42.0409 23.3749 42.3861C23.3749 42.7313 23.6547 43.0112 23.9999 43.0112Z" fill="url(#paint11_radial_1324_1990)"/>
<path d="M23.9999 46.7614C24.3451 46.7614 24.625 46.4815 24.625 46.1363C24.625 45.7911 24.3451 45.5113 23.9999 45.5113C23.6547 45.5113 23.3749 45.7911 23.3749 46.1363C23.3749 46.4815 23.6547 46.7614 23.9999 46.7614Z" fill="url(#paint12_radial_1324_1990)"/>
<path d="M31.0029 14.2595H16.9968C15.0884 14.2595 13.6256 15.955 13.9054 17.8428L14.6244 22.6937L16.0277 22.5204C16.654 22.443 17.1245 21.9109 17.1245 21.2797V18.0096C17.1245 17.3192 17.6842 16.7595 18.3746 16.7595H29.6252C30.3156 16.7595 30.8753 17.3192 30.8753 18.0096V21.2797C30.8753 21.9108 31.3458 22.443 31.9721 22.5203L33.3755 22.6937L34.0944 17.8427C34.3742 15.9549 32.9114 14.2595 31.0029 14.2595Z" fill="url(#paint13_linear_1324_1990)"/>
<path d="M32.4188 10.0399C32.2986 9.66765 31.8663 9.48696 31.5248 9.67749C30.8736 10.0409 29.6632 10.5093 27.75 10.5093H21.4997C19.0833 10.5093 17.1244 12.4681 17.1244 14.8846C17.1244 15.9202 17.9639 16.7597 18.9995 16.7597H29C31.3489 16.7597 33.6977 14.0015 32.4188 10.0399Z" fill="url(#paint14_linear_1324_1990)"/>
<path d="M14.6244 43.0109V48.6363H12.7493V44.886C12.7493 43.8504 13.5888 43.0109 14.6244 43.0109Z" fill="url(#paint15_linear_1324_1990)"/>
<path d="M33.3754 43.0109V48.6363H35.2505V44.886C35.2505 43.8504 34.411 43.0109 33.3754 43.0109Z" fill="url(#paint16_linear_1324_1990)"/>
<path d="M14.6244 48.6362H17.1245V36.8708L14.6244 37.6061V48.6362Z" fill="url(#paint17_linear_1324_1990)"/>
<path d="M33.3754 48.6362H30.8753V36.8708L33.3754 37.6062V48.6362Z" fill="url(#paint18_linear_1324_1990)"/>
<path d="M14.6244 48.6363H15.8745V44.261C15.8745 43.5706 15.3148 43.0109 14.6244 43.0109V48.6363Z" fill="#FFD164"/>
<path d="M33.3754 48.6363H32.1254V44.261C32.1254 43.5706 32.6851 43.0109 33.3754 43.0109V48.6363Z" fill="#FFD164"/>
<path d="M20.8452 12.6881C20.8547 13.5743 21.6396 14.2594 22.5258 14.2594H31.003C31.4527 14.2594 31.8762 14.3564 32.2595 14.5251C32.8289 13.3694 32.9969 11.8289 32.418 10.0373C32.2983 9.66695 31.8663 9.48664 31.5265 9.67648C30.8758 10.04 29.6649 10.5093 27.7501 10.5093H21.4997C21.4606 10.5322 21.4164 10.5582 21.3774 10.5811C21.0394 11.2016 20.845 11.9115 20.845 12.6679C20.845 12.6746 20.8451 12.6813 20.8452 12.6881Z" fill="url(#paint19_linear_1324_1990)"/>
</g>
<path d="M40 47C42.7614 47 45 44.7614 45 42C45 39.2386 42.7614 37 40 37C37.2386 37 35 39.2386 35 42C35 44.7614 37.2386 47 40 47Z" fill="#31D482" stroke="#F5F7FA" stroke-width="2"/>
<defs>
<radialGradient id="paint0_radial_1324_1990" cx="0" cy="0" r="1" gradientUnits="userSpaceOnUse" gradientTransform="translate(9.50073 5.5) rotate(51.8091) scale(47.7127)">
<stop offset="0.492268" stop-color="#B8A4FC"/>
<stop offset="1" stop-color="#B859E4"/>
</radialGradient>
<linearGradient id="paint1_linear_1324_1990" x1="23.9999" y1="36.4032" x2="23.9999" y2="48.6363" gradientUnits="userSpaceOnUse">
<stop stop-color="#FF414F"/>
<stop offset="1" stop-color="#FF7456"/>
</linearGradient>
<linearGradient id="paint2_linear_1324_1990" x1="23.9999" y1="36.4032" x2="23.9999" y2="41.2204" gradientUnits="userSpaceOnUse">
<stop stop-color="#B33639"/>
<stop offset="1" stop-color="#E64549"/>
</linearGradient>
<linearGradient id="paint3_linear_1324_1990" x1="15.0007" y1="17.5001" x2="31.0007" y2="29.5001" gradientUnits="userSpaceOnUse">
<stop stop-color="#EDB379"/>
<stop offset="1" stop-color="#FFC182"/>
</linearGradient>
<linearGradient id="paint4_linear_1324_1990" x1="14.5007" y1="18.0001" x2="24.0007" y2="22.5001" gradientUnits="userSpaceOnUse">
<stop stop-color="#C58646"/>
<stop offset="1" stop-color="#C68748" stop-opacity="0.06"/>
</linearGradient>
<linearGradient id="paint5_linear_1324_1990" x1="20.6231" y1="34.4989" x2="20.6231" y2="39.9704" gradientUnits="userSpaceOnUse">
<stop stop-color="#FF414F"/>
<stop offset="1" stop-color="#FF7456"/>
</linearGradient>
<linearGradient id="paint6_linear_1324_1990" x1="27.3767" y1="34.4988" x2="27.3767" y2="39.9704" gradientUnits="userSpaceOnUse">
<stop stop-color="#FF414F"/>
<stop offset="1" stop-color="#FF7456"/>
</linearGradient>
<radialGradient id="paint7_radial_1324_1990" cx="0" cy="0" r="1" gradientUnits="userSpaceOnUse" gradientTransform="translate(20.0007 23.0001) rotate(71.5651) scale(1.58114 1.05409)">
<stop stop-color="#040404"/>
<stop offset="1" stop-color="#767676"/>
</radialGradient>
<radialGradient id="paint8_radial_1324_1990" cx="0" cy="0" r="1" gradientUnits="userSpaceOnUse" gradientTransform="translate(27.5012 23) rotate(71.5651) scale(1.58114 1.05409)">
<stop stop-color="#040404"/>
<stop offset="1" stop-color="#767676"/>
</radialGradient>
<linearGradient id="paint9_linear_1324_1990" x1="20.5007" y1="20.4999" x2="20.5007" y2="21.9999" gradientUnits="userSpaceOnUse">
<stop stop-color="#332A2E"/>
<stop offset="1" stop-color="#6E5A64"/>
</linearGradient>
<linearGradient id="paint10_linear_1324_1990" x1="28.0012" y1="20.4999" x2="28.0012" y2="21.9999" gradientUnits="userSpaceOnUse">
<stop stop-color="#332A2E"/>
<stop offset="1" stop-color="#6E5A64"/>
</linearGradient>
<radialGradient id="paint11_radial_1324_1990" cx="0" cy="0" r="1" gradientUnits="userSpaceOnUse" gradientTransform="translate(24.0007 41.5001) rotate(90.0312) scale(1.51106)">
<stop stop-color="#FFC350"/>
<stop offset="1" stop-color="#FFD179" stop-opacity="0.97"/>
</radialGradient>
<radialGradient id="paint12_radial_1324_1990" cx="0" cy="0" r="1" gradientUnits="userSpaceOnUse" gradientTransform="translate(24.0007 45.2503) rotate(90.0312) scale(1.51107 1.51106)">
<stop stop-color="#FFC350"/>
<stop offset="1" stop-color="#FFD179" stop-opacity="0.97"/>
</radialGradient>
<linearGradient id="paint13_linear_1324_1990" x1="23.9999" y1="14.2595" x2="23.9999" y2="22.6937" gradientUnits="userSpaceOnUse">
<stop stop-color="#362A30"/>
<stop offset="1" stop-color="#826574"/>
</linearGradient>
<linearGradient id="paint14_linear_1324_1990" x1="17.5007" y1="14.5" x2="33.0007" y2="11" gradientUnits="userSpaceOnUse">
<stop stop-color="#64505A"/>
<stop offset="1" stop-color="#78606C"/>
</linearGradient>
<linearGradient id="paint15_linear_1324_1990" x1="13.6868" y1="43.0109" x2="13.6868" y2="48.6363" gradientUnits="userSpaceOnUse">
<stop stop-color="#B33639"/>
<stop offset="1" stop-color="#E64549"/>
</linearGradient>
<linearGradient id="paint16_linear_1324_1990" x1="34.313" y1="43.0109" x2="34.313" y2="48.6363" gradientUnits="userSpaceOnUse">
<stop stop-color="#B33639"/>
<stop offset="1" stop-color="#E64549"/>
</linearGradient>
<linearGradient id="paint17_linear_1324_1990" x1="15.8745" y1="36.8708" x2="15.8745" y2="48.6362" gradientUnits="userSpaceOnUse">
<stop stop-color="#FFCA62"/>
<stop offset="1" stop-color="#FFCA62" stop-opacity="0.38"/>
</linearGradient>
<linearGradient id="paint18_linear_1324_1990" x1="32.1254" y1="36.8708" x2="32.1254" y2="48.6362" gradientUnits="userSpaceOnUse">
<stop stop-color="#FFCA62"/>
<stop offset="1" stop-color="#FFCA62" stop-opacity="0.38"/>
</linearGradient>
<linearGradient id="paint19_linear_1324_1990" x1="21.0007" y1="13.5" x2="32.5007" y2="10" gradientUnits="userSpaceOnUse">
<stop stop-color="#7A646F"/>
<stop offset="1" stop-color="#6E5A64"/>
</linearGradient>
</defs>
</svg>
