<svg width="48" height="48" viewBox="0 0 48 48" fill="none" xmlns="http://www.w3.org/2000/svg">
<circle cx="23.9988" cy="24" r="24" fill="url(#paint0_radial_1324_2435)"/>
<path d="M15.0521 30C14.6561 30 14.3501 29.898 14.1341 29.694C13.9301 29.478 13.8281 29.172 13.8281 28.776V18.534C13.8281 18.138 13.9301 17.838 14.1341 17.634C14.3501 17.418 14.6561 17.31 15.0521 17.31H18.5441C20.6681 17.31 22.3061 17.856 23.4581 18.948C24.6221 20.04 25.2041 21.606 25.2041 23.646C25.2041 24.666 25.0541 25.572 24.7541 26.364C24.4661 27.144 24.0341 27.804 23.4581 28.344C22.8941 28.884 22.1981 29.298 21.3701 29.586C20.5541 29.862 19.6121 30 18.5441 30H15.0521ZM16.1321 28.092H18.4001C19.1441 28.092 19.7861 28.002 20.3261 27.822C20.8781 27.63 21.3341 27.354 21.6941 26.994C22.0661 26.622 22.3421 26.16 22.5221 25.608C22.7021 25.044 22.7921 24.39 22.7921 23.646C22.7921 22.158 22.4261 21.048 21.6941 20.316C20.9621 19.584 19.8641 19.218 18.4001 19.218H16.1321V28.092ZM30.9776 30.144C30.6056 30.144 30.3176 30.042 30.1136 29.838C29.9216 29.622 29.8256 29.328 29.8256 28.956V19.236H26.3156C26.0036 19.236 25.7576 19.152 25.5776 18.984C25.4096 18.804 25.3256 18.564 25.3256 18.264C25.3256 17.952 25.4096 17.718 25.5776 17.562C25.7576 17.394 26.0036 17.31 26.3156 17.31H35.6396C35.9516 17.31 36.1916 17.394 36.3596 17.562C36.5396 17.718 36.6296 17.952 36.6296 18.264C36.6296 18.564 36.5396 18.804 36.3596 18.984C36.1916 19.152 35.9516 19.236 35.6396 19.236H32.1296V28.956C32.1296 29.328 32.0336 29.622 31.8416 29.838C31.6496 30.042 31.3616 30.144 30.9776 30.144Z" fill="white"/>
<defs>
<radialGradient id="paint0_radial_1324_2435" cx="0" cy="0" r="1" gradientUnits="userSpaceOnUse" gradientTransform="translate(6.49878 6.5) rotate(49.1446) scale(48.9183)">
<stop stop-color="#FF6C7E"/>
<stop offset="1" stop-color="#FFC259"/>
</radialGradient>
</defs>
</svg>
