<svg width="48" height="48" viewBox="0 0 48 48" fill="none" xmlns="http://www.w3.org/2000/svg">
<circle cx="24.0017" cy="24" r="24" fill="url(#paint0_radial_1324_496)"/>
<mask id="mask0_1324_496" style="mask-type:alpha" maskUnits="userSpaceOnUse" x="0" y="0" width="49" height="48">
<circle cx="24.0017" cy="24" r="24" fill="#C4C4C4"/>
</mask>
<g mask="url(#mask0_1324_496)">
<path d="M36.31 37.4268L29.723 35.4894H18.2814L11.6945 37.4268C10.0986 37.8963 9.00272 39.3608 9.00272 41.0243V46.4995C9.00272 47.535 9.84217 48.3744 10.8776 48.3744H37.1268C38.1623 48.3744 39.0017 47.535 39.0017 46.4995V41.0243C39.0017 39.3608 37.9058 37.8962 36.31 37.4268Z" fill="url(#paint1_linear_1324_496)"/>
<path d="M27.127 48.3744H20.8773L19.6273 35.8749H28.377L27.127 48.3744Z" fill="url(#paint2_linear_1324_496)"/>
<path d="M19.6273 35.8749L19.8144 37.7457C20.8444 38.8964 22.3364 39.6248 24.0022 39.6248C25.6681 39.6248 27.1601 38.8964 28.1901 37.7457L28.3771 35.8749H19.6273Z" fill="url(#paint3_linear_1324_496)"/>
<path d="M24.0022 38.3747C21.586 38.3747 19.6273 36.416 19.6273 33.9999V29.625H28.377V33.9999C28.377 36.416 26.4184 38.3747 24.0022 38.3747Z" fill="url(#paint4_linear_1324_496)"/>
<path d="M19.6273 32.2693C20.9404 32.9707 22.4293 33.375 24.0022 33.375C25.575 33.375 27.064 32.9707 28.377 32.2693V29.625H19.6273V32.2693Z" fill="url(#paint5_linear_1324_496)"/>
<path d="M32.4394 21.5003H32.1269V15.2506H15.8774V21.5004H15.5649C14.7056 21.5004 14.0025 22.2035 14.0025 23.0628C14.0025 23.9222 14.7056 24.6253 15.5649 24.6253H15.909C16.2291 28.8195 19.726 32.1251 24.0022 32.1251C28.2784 32.1251 31.7752 28.8195 32.0953 24.6253H32.4394C33.2988 24.6253 34.0018 23.9222 34.0018 23.0628C34.0018 22.2035 33.2988 21.5003 32.4394 21.5003Z" fill="url(#paint6_linear_1324_496)"/>
<path d="M20.2523 23.4296C19.9068 23.4296 19.6273 23.1497 19.6273 22.8046V22.1796C19.6273 21.8345 19.9069 21.5547 20.2523 21.5547C20.5977 21.5547 20.8773 21.8345 20.8773 22.1796V22.8046C20.8773 23.1498 20.5977 23.4296 20.2523 23.4296Z" fill="url(#paint7_radial_1324_496)"/>
<path d="M27.752 23.4296C27.4065 23.4296 27.127 23.1497 27.127 22.8046V22.1796C27.127 21.8345 27.4066 21.5547 27.752 21.5547C28.0975 21.5547 28.377 21.8345 28.377 22.1796V22.8046C28.377 23.1498 28.0975 23.4296 27.752 23.4296Z" fill="url(#paint8_radial_1324_496)"/>
<path d="M20.8773 20.8754H19.6274C19.2819 20.8754 19.0024 20.5955 19.0024 20.2504C19.0024 19.9053 19.2819 19.6254 19.6274 19.6254H20.8773C21.2228 19.6254 21.5023 19.9053 21.5023 20.2504C21.5023 20.5955 21.2227 20.8754 20.8773 20.8754Z" fill="url(#paint9_linear_1324_496)"/>
<path d="M28.377 20.8753H27.127C26.7816 20.8753 26.5021 20.5955 26.5021 20.2504C26.5021 19.9052 26.7816 19.6254 27.127 19.6254H28.377C28.7225 19.6254 29.002 19.9052 29.002 20.2504C29.002 20.5955 28.7225 20.8753 28.377 20.8753Z" fill="url(#paint10_linear_1324_496)"/>
<path d="M15.8774 15.2506V21.5004H15.6198C14.9083 21.5004 14.2436 21.9513 14.0593 22.6387C13.7805 23.678 14.5675 24.6254 15.5649 24.6254H15.909C16.2291 28.8195 19.726 32.1251 24.0022 32.1251C24.4297 32.1251 24.8465 32.0835 25.256 32.0199C21.362 31.4188 18.3773 28.0628 18.3773 24.0004V20.2024C18.3773 18.7352 19.6165 17.5408 21.0788 17.6613C21.4881 17.695 21.9179 17.713 22.3695 17.713C24.1818 17.713 26.2052 17.4238 28.3839 16.8534C29.3359 16.6042 30.1547 16.024 30.714 15.2506H15.8774Z" fill="url(#paint11_linear_1324_496)"/>
<path d="M18.9242 12.7506L19.0023 15.2505C19.0023 15.2505 17.1274 17.1254 17.1274 19.6253V20.3968C17.1274 21.0272 16.658 21.5589 16.0324 21.6372L14.6274 21.8128V16.5005C14.6275 14.4295 16.5805 12.6465 18.9242 12.7506Z" fill="url(#paint12_linear_1324_496)"/>
<path d="M31.4899 38.9877L30.252 37.7498L31.5768 35.9834C31.8632 35.6014 31.7339 35.0533 31.3068 34.8398L28.3771 33.3749L24.0022 48.3744H27.752L31.724 40.4305C31.9646 39.9492 31.8703 39.3681 31.4899 38.9877Z" fill="url(#paint13_linear_1324_496)"/>
<path d="M29.0801 10.8757L29.002 15.2505C29.002 15.2505 30.8769 17.1254 30.8769 19.6253V20.3968C30.8769 21.0271 31.3463 21.5589 31.9718 21.6371L33.3768 21.8128V14.6256C33.3768 12.5546 31.4238 10.7715 29.0801 10.8757Z" fill="url(#paint14_linear_1324_496)"/>
<path d="M24.0022 27.7502C23.0641 27.7502 22.1992 27.4492 21.6884 26.9451C21.4424 26.7022 21.44 26.3068 21.6822 26.0614C21.9258 25.8154 22.3213 25.813 22.566 26.0553C22.7741 26.2604 23.2746 26.5002 24.0021 26.5002C24.7296 26.5002 25.2301 26.2604 25.4382 26.0553C25.683 25.8129 26.0785 25.8154 26.3219 26.0614C26.5643 26.3068 26.5618 26.7023 26.3158 26.9451C25.8051 27.4492 24.9402 27.7502 24.0022 27.7502Z" fill="#DEA672"/>
<path d="M16.5145 38.9877L17.7524 37.7498L16.4276 35.9834C16.1412 35.6014 16.2705 35.0533 16.6976 34.8398L19.6274 33.3749L24.0022 48.3744H20.2523L16.2804 40.4305C16.0398 39.9492 16.1341 39.3681 16.5145 38.9877Z" fill="url(#paint15_linear_1324_496)"/>
<path d="M25.2131 9.62573C19.9988 9.62573 18.9995 11.2109 14.9844 12.4897C14.7085 12.5776 14.5843 12.8972 14.7403 13.1411C15.6115 14.504 18.8544 18.0563 28.0674 15.6441C29.1462 15.3617 29.9758 14.4918 30.1946 13.3982C30.4479 12.1312 29.678 10.8764 28.5203 10.3028C27.6007 9.84718 26.3948 9.62573 25.2131 9.62573Z" fill="url(#paint16_linear_1324_496)"/>
</g>
<path d="M40.001 47C42.7624 47 45.001 44.7614 45.001 42C45.001 39.2386 42.7624 37 40.001 37C37.2396 37 35.001 39.2386 35.001 42C35.001 44.7614 37.2396 47 40.001 47Z" fill="#31D482" stroke="#F5F7FA" stroke-width="2"/>
<defs>
<radialGradient id="paint0_radial_1324_496" cx="0" cy="0" r="1" gradientUnits="userSpaceOnUse" gradientTransform="translate(7.84171 5.44) rotate(53.9454) scale(49.477)">
<stop offset="0.356879" stop-color="#FFD080"/>
<stop offset="1" stop-color="#FFBB80"/>
</radialGradient>
<linearGradient id="paint1_linear_1324_496" x1="24.0022" y1="35.4894" x2="24.0022" y2="48.3744" gradientUnits="userSpaceOnUse">
<stop stop-color="#6B2BF2"/>
<stop offset="1" stop-color="#BB9BFF"/>
</linearGradient>
<linearGradient id="paint2_linear_1324_496" x1="24.0017" y1="37.9999" x2="24.0022" y2="48.3744" gradientUnits="userSpaceOnUse">
<stop stop-color="#8CD3FF"/>
<stop offset="1" stop-color="#CFECFF"/>
</linearGradient>
<linearGradient id="paint3_linear_1324_496" x1="21.5017" y1="37.9999" x2="25.5017" y2="39.9999" gradientUnits="userSpaceOnUse">
<stop stop-color="#73B6E6"/>
<stop offset="1" stop-color="#92CCF5"/>
</linearGradient>
<linearGradient id="paint4_linear_1324_496" x1="21.5957" y1="31.31" x2="27.516" y2="36.5224" gradientUnits="userSpaceOnUse">
<stop stop-color="#E6AC82"/>
<stop offset="1" stop-color="#F2CBAF"/>
</linearGradient>
<linearGradient id="paint5_linear_1324_496" x1="20.0017" y1="31.5" x2="25.5578" y2="36.3633" gradientUnits="userSpaceOnUse">
<stop stop-color="#E6A470"/>
<stop offset="1" stop-color="#E6A370" stop-opacity="0"/>
</linearGradient>
<linearGradient id="paint6_linear_1324_496" x1="18.5017" y1="18.5001" x2="30.0017" y2="30.5001" gradientUnits="userSpaceOnUse">
<stop stop-color="#F3B68A"/>
<stop offset="1" stop-color="#FED5B8"/>
</linearGradient>
<radialGradient id="paint7_radial_1324_496" cx="0" cy="0" r="1" gradientUnits="userSpaceOnUse" gradientTransform="translate(20.0034 22.1154) rotate(71.565) scale(1.58098 1.05398)">
<stop stop-color="#040404"/>
<stop offset="1" stop-color="#767676"/>
</radialGradient>
<radialGradient id="paint8_radial_1324_496" cx="0" cy="0" r="1" gradientUnits="userSpaceOnUse" gradientTransform="translate(27.5031 22.1154) rotate(71.5651) scale(1.58098 1.05398)">
<stop stop-color="#040404"/>
<stop offset="1" stop-color="#767676"/>
</radialGradient>
<linearGradient id="paint9_linear_1324_496" x1="19.5017" y1="19.4999" x2="20.2523" y2="20.8754" gradientUnits="userSpaceOnUse">
<stop stop-color="#70482B"/>
<stop offset="1" stop-color="#70482B" stop-opacity="0.49"/>
</linearGradient>
<linearGradient id="paint10_linear_1324_496" x1="27.0014" y1="19.4999" x2="27.752" y2="20.8753" gradientUnits="userSpaceOnUse">
<stop stop-color="#70482B"/>
<stop offset="1" stop-color="#70482B" stop-opacity="0.49"/>
</linearGradient>
<linearGradient id="paint11_linear_1324_496" x1="16.5017" y1="15.5001" x2="22.3583" y2="32.1251" gradientUnits="userSpaceOnUse">
<stop stop-color="#EBA873"/>
<stop offset="1" stop-color="#EBA773" stop-opacity="0"/>
</linearGradient>
<linearGradient id="paint12_linear_1324_496" x1="15.0017" y1="21.4999" x2="20.7208" y2="19.0299" gradientUnits="userSpaceOnUse">
<stop stop-color="#99633C"/>
<stop offset="1" stop-color="#412A18"/>
</linearGradient>
<linearGradient id="paint13_linear_1324_496" x1="27.9291" y1="33.3749" x2="27.9291" y2="48.3744" gradientUnits="userSpaceOnUse">
<stop stop-color="#864DFF"/>
<stop offset="1" stop-color="#D3BFFF"/>
</linearGradient>
<linearGradient id="paint14_linear_1324_496" x1="33.5017" y1="22" x2="36.9279" y2="15.2728" gradientUnits="userSpaceOnUse">
<stop stop-color="#99633C"/>
<stop offset="1" stop-color="#412A18"/>
</linearGradient>
<linearGradient id="paint15_linear_1324_496" x1="20.0753" y1="33.3749" x2="20.0753" y2="48.3744" gradientUnits="userSpaceOnUse">
<stop stop-color="#864DFF"/>
<stop offset="1" stop-color="#D3BFFF"/>
</linearGradient>
<linearGradient id="paint16_linear_1324_496" x1="15.5017" y1="13.5" x2="29.5017" y2="11" gradientUnits="userSpaceOnUse">
<stop stop-color="#8A5936"/>
<stop offset="1" stop-color="#412A18"/>
</linearGradient>
</defs>
</svg>
