<svg width="48" height="48" viewBox="0 0 48 48" fill="none" xmlns="http://www.w3.org/2000/svg">
<circle cx="24.0015" cy="24" r="24" fill="url(#paint0_radial_1324_399)"/>
<mask id="mask0_1324_399" style="mask-type:alpha" maskUnits="userSpaceOnUse" x="0" y="0" width="49" height="48">
<circle cx="24.0015" cy="24" r="24" fill="#C4C4C4"/>
</mask>
<g mask="url(#mask0_1324_399)">
<path d="M40.3617 35.5755C40.4143 31.9458 39.2044 31.3146 38.5995 29.1841C37.9905 27.0392 38.6101 25.5746 37.8893 23.2004C37.2187 20.991 36.0002 20.6177 35.6274 17.4796C34.9961 12.1665 29.2621 9.43115 26.4215 9.43115C25.6183 9.43115 25.0698 9.63502 24.7011 9.87887C24.2743 10.1612 23.7291 10.1612 23.3024 9.87887C22.9336 9.63502 22.3851 9.43115 21.5819 9.43115C18.7413 9.43115 13.0074 12.1665 12.3761 17.4796C12.0033 20.6177 10.7849 20.9909 10.1142 23.2004C9.39341 25.5746 10.013 27.0392 9.40403 29.1841C8.79908 31.3146 7.58917 31.9458 7.64176 35.5755C7.70276 39.7848 5.27454 40.7308 6.22142 43.5188C6.92811 45.5995 10.7454 47.3063 10.7454 47.3063H37.2581C37.2581 47.3063 41.0754 45.5995 41.7821 43.5188C42.7289 40.7308 40.3007 39.7848 40.3617 35.5755Z" fill="url(#paint1_linear_1324_399)"/>
<path d="M24.0017 10.0906C23.7587 10.0906 23.5157 10.0201 23.3024 9.87887C22.9336 9.63502 22.3851 9.43115 21.5819 9.43115C18.7413 9.43115 13.0074 12.1665 12.3761 17.4796C12.0033 20.6177 10.7849 20.9909 10.1142 23.2004C9.39341 25.5746 10.013 27.0392 9.40403 29.1841C8.79908 31.3146 7.58917 31.9458 7.64176 35.5755C7.70276 39.7848 5.27454 40.7308 6.22142 43.5188C6.92811 45.5995 10.7454 47.3063 10.7454 47.3063H24.0017V10.0906Z" fill="url(#paint2_linear_1324_399)"/>
<path d="M35.9936 40.102L29.4739 37.8009C28.4643 37.4446 27.7892 36.4904 27.7892 35.4199V32.1563H20.2142V35.4199C20.2142 36.4904 19.539 37.4446 18.5295 37.8009L12.0098 40.102C10.4955 40.6365 9.48285 42.0678 9.48285 43.6736V46.6752C9.48285 47.7211 10.3307 48.5689 11.3766 48.5689H36.6268C37.6726 48.5689 38.5205 47.7211 38.5205 46.6752V43.6736C38.5205 42.0678 37.5079 40.6365 35.9936 40.102Z" fill="url(#paint3_linear_1324_399)"/>
<path d="M35.9936 40.1021L31.6433 38.5667C29.9313 40.933 27.6012 43.5426 24.889 44.9887C24.3357 45.2837 23.6677 45.2837 23.1145 44.9887C20.4022 43.5427 18.0721 40.933 16.3601 38.5667L12.0098 40.1021C10.4955 40.6366 9.48291 42.0679 9.48291 43.6737V46.6753C9.48291 47.7211 10.3308 48.569 11.3767 48.569H36.6268C37.6727 48.569 38.5206 47.7211 38.5206 46.6753V43.6737C38.5205 42.0679 37.5079 40.6366 35.9936 40.1021Z" fill="url(#paint4_linear_1324_399)"/>
<path d="M20.2142 33.8736C21.3797 34.389 22.6604 34.6814 24.0017 34.6814C25.343 34.6814 26.6237 34.3891 27.7892 33.8736V32.1563H20.2141L20.2142 33.8736Z" fill="url(#paint5_linear_1324_399)"/>
<path d="M24.0017 33.4188C19.4695 33.4188 15.7954 29.7447 15.7954 25.2125V14.4813H32.208V25.2126C32.208 29.7447 28.5339 33.4188 24.0017 33.4188Z" fill="url(#paint6_linear_1324_399)"/>
<path d="M15.7954 14.4813V25.2126C15.7954 29.7447 19.4695 33.4189 24.0017 33.4189C24.4322 33.4189 24.8516 33.3757 25.2642 33.3119C21.333 32.7032 18.3204 29.3144 18.3204 25.2126V21.9297C18.3204 21.4107 18.4814 20.9093 18.7563 20.469C18.7577 20.4667 18.7592 20.4643 18.7606 20.462C19.7971 18.7987 20.7674 18.5542 21.8907 18.2712C22.5358 18.1086 23.2875 17.9192 24.0016 17.4433C24.7159 17.9192 25.4676 18.1086 26.1126 18.2712C27.236 18.5543 28.2062 18.7987 29.2427 20.4619C30.2069 22.0091 31.2858 22.8643 32.2079 23.525V14.4813H15.7954Z" fill="url(#paint7_linear_1324_399)"/>
<path d="M24.0017 29.6312C23.0542 29.6312 22.1807 29.3273 21.6647 28.8181C21.4163 28.5728 21.4138 28.1734 21.6585 27.9255C21.9045 27.6771 22.304 27.6747 22.5511 27.9194C22.7613 28.1265 23.2668 28.3688 24.0016 28.3688C24.7365 28.3688 25.242 28.1265 25.4522 27.9194C25.6994 27.6746 26.0989 27.6771 26.3448 27.9255C26.5895 28.1734 26.587 28.5728 26.3386 28.8181C25.8228 29.3273 24.9492 29.6312 24.0017 29.6312Z" fill="#A06E50"/>
<path d="M20.2142 25.2124C19.8652 25.2124 19.5829 24.9301 19.5829 24.5812V23.9499C19.5829 23.601 19.8653 23.3187 20.2142 23.3187C20.5631 23.3187 20.8454 23.6011 20.8454 23.9499V24.5812C20.8454 24.9301 20.5631 25.2124 20.2142 25.2124Z" fill="url(#paint8_radial_1324_399)"/>
<path d="M27.7892 25.2124C27.4403 25.2124 27.158 24.9301 27.158 24.5812V23.9499C27.158 23.601 27.4403 23.3187 27.7892 23.3187C28.1382 23.3187 28.4205 23.6011 28.4205 23.9499V24.5812C28.4205 24.9301 28.1382 25.2124 27.7892 25.2124Z" fill="url(#paint9_radial_1324_399)"/>
<path d="M20.8455 22.6874H19.583C19.234 22.6874 18.9517 22.405 18.9517 22.0561C18.9517 21.7072 19.2341 21.4249 19.583 21.4249H20.8455C21.1944 21.4249 21.4767 21.7072 21.4767 22.0561C21.4767 22.405 21.1943 22.6874 20.8455 22.6874Z" fill="url(#paint10_linear_1324_399)"/>
<path d="M28.4204 22.6874H27.158C26.809 22.6874 26.5267 22.4051 26.5267 22.0562C26.5267 21.7073 26.8091 21.4249 27.158 21.4249H28.4204C28.7694 21.4249 29.0517 21.7073 29.0517 22.0562C29.0517 22.4051 28.7694 22.6874 28.4204 22.6874Z" fill="url(#paint11_linear_1324_399)"/>
<path d="M14.1051 43.5403L10.8829 40.7425C10.5528 41.0115 10.2754 41.334 10.0538 41.6938L13.2777 44.4933C13.692 44.8534 13.9299 45.3749 13.9299 45.9235V48.5687H15.1924V45.9235C15.1925 45.0086 14.7962 44.1401 14.1051 43.5403Z" fill="url(#paint12_linear_1324_399)"/>
<path d="M33.9267 43.5403L37.1489 40.7425C37.479 41.0116 37.7564 41.334 37.978 41.6939L34.754 44.4934C34.3398 44.8534 34.1019 45.3749 34.1019 45.9236V48.5687H32.8394V45.9235C32.8393 45.0087 33.2356 44.1401 33.9267 43.5403Z" fill="url(#paint13_linear_1324_399)"/>
<path d="M38.5995 29.1841C37.9905 27.0392 38.6101 25.5746 37.8893 23.2004C37.2186 20.991 36.0002 20.6177 35.6274 17.4796C34.996 12.1665 29.2621 9.43115 26.4215 9.43115C25.6183 9.43115 25.0698 9.63502 24.7011 9.87887C24.4877 10.0201 24.2447 10.0906 24.0017 10.0906V15.7437C25.6324 17.7953 28.0522 16.1645 30.3143 19.7942C32.2369 22.8794 34.6511 22.8014 35.5004 25.2338C35.7438 25.9309 35.6118 26.6758 35.67 27.4119C35.9955 31.525 39.1518 33.4188 40.5706 37.7111C40.4353 37.0982 40.3497 36.4011 40.3617 35.5755C40.4143 31.9458 39.2044 31.3146 38.5995 29.1841Z" fill="url(#paint14_linear_1324_399)"/>
<path d="M9.40397 29.1841C10.013 27.0392 9.39334 25.5746 10.1141 23.2004C10.7848 20.991 12.0033 20.6177 12.3761 17.4796C13.0074 12.1665 18.7413 9.43115 21.5819 9.43115C22.3852 9.43115 22.9336 9.63502 23.3024 9.87887C23.5157 10.0201 23.7587 10.0906 24.0017 10.0906V15.7437C22.371 17.7953 19.9512 16.1645 17.6892 19.7942C15.7665 22.8794 13.3523 22.8014 12.503 25.2338C12.2596 25.9309 12.3917 26.6758 12.3334 27.4119C12.0079 31.525 8.85168 33.4188 7.43286 37.7111C7.56816 37.0982 7.6537 36.4011 7.6417 35.5755C7.58911 31.9458 8.79901 31.3146 9.40397 29.1841Z" fill="url(#paint15_linear_1324_399)"/>
</g>
<path d="M40.001 47C42.7624 47 45.001 44.7614 45.001 42C45.001 39.2386 42.7624 37 40.001 37C37.2396 37 35.001 39.2386 35.001 42C35.001 44.7614 37.2396 47 40.001 47Z" fill="#31D482" stroke="#F5F7FA" stroke-width="2"/>
<defs>
<radialGradient id="paint0_radial_1324_399" cx="0" cy="0" r="1" gradientUnits="userSpaceOnUse" gradientTransform="translate(7.50147 7.5) rotate(48.4682) scale(46.7547)">
<stop offset="0.449021" stop-color="#FEC0B2"/>
<stop offset="1" stop-color="#FF866B"/>
</radialGradient>
<linearGradient id="paint1_linear_1324_399" x1="24.0017" y1="9.43115" x2="24.0017" y2="47.3063" gradientUnits="userSpaceOnUse">
<stop stop-color="#33282D"/>
<stop offset="1" stop-color="#6E5561"/>
</linearGradient>
<linearGradient id="paint2_linear_1324_399" x1="15.0019" y1="9.43115" x2="15.0019" y2="47.3063" gradientUnits="userSpaceOnUse">
<stop stop-color="#1A1417"/>
<stop offset="1" stop-color="#5A4650"/>
</linearGradient>
<linearGradient id="paint3_linear_1324_399" x1="18.2984" y1="37.8154" x2="25.6357" y2="47.2148" gradientUnits="userSpaceOnUse">
<stop stop-color="#D4A06C"/>
<stop offset="1" stop-color="#FABD80"/>
</linearGradient>
<linearGradient id="paint4_linear_1324_399" x1="14.0015" y1="39.5" x2="33.5015" y2="47" gradientUnits="userSpaceOnUse">
<stop stop-color="#ACED8E"/>
<stop offset="1" stop-color="#A6FFAA"/>
</linearGradient>
<linearGradient id="paint5_linear_1324_399" x1="20.4572" y1="32.5156" x2="22.4032" y2="36.4913" gradientUnits="userSpaceOnUse">
<stop stop-color="#C58646"/>
<stop offset="1" stop-color="#C68748" stop-opacity="0.06"/>
</linearGradient>
<linearGradient id="paint6_linear_1324_399" x1="16.6171" y1="16.6351" x2="32.1177" y2="25.4511" gradientUnits="userSpaceOnUse">
<stop stop-color="#EDB379"/>
<stop offset="1" stop-color="#FFC182"/>
</linearGradient>
<linearGradient id="paint7_linear_1324_399" x1="16.322" y1="17.1762" x2="26.4071" y2="21.8132" gradientUnits="userSpaceOnUse">
<stop stop-color="#C58646"/>
<stop offset="1" stop-color="#C68748" stop-opacity="0.06"/>
</linearGradient>
<radialGradient id="paint8_radial_1324_399" cx="0" cy="0" r="1" gradientUnits="userSpaceOnUse" gradientTransform="translate(19.9628 23.8851) rotate(71.565) scale(1.59685 1.06457)">
<stop stop-color="#040404"/>
<stop offset="1" stop-color="#767676"/>
</radialGradient>
<radialGradient id="paint9_radial_1324_399" cx="0" cy="0" r="1" gradientUnits="userSpaceOnUse" gradientTransform="translate(27.5378 23.8851) rotate(71.5651) scale(1.59685 1.06457)">
<stop stop-color="#040404"/>
<stop offset="1" stop-color="#767676"/>
</radialGradient>
<linearGradient id="paint10_linear_1324_399" x1="19.1163" y1="21.7495" x2="19.373" y2="23.0599" gradientUnits="userSpaceOnUse">
<stop stop-color="#403239"/>
<stop offset="1" stop-color="#806371"/>
</linearGradient>
<linearGradient id="paint11_linear_1324_399" x1="26.6913" y1="21.7496" x2="26.948" y2="23.06" gradientUnits="userSpaceOnUse">
<stop stop-color="#403239"/>
<stop offset="1" stop-color="#806371"/>
</linearGradient>
<linearGradient id="paint12_linear_1324_399" x1="12.5015" y1="40" x2="12.6231" y2="48.5687" gradientUnits="userSpaceOnUse">
<stop stop-color="#87BA70"/>
<stop offset="1" stop-color="#87BA70" stop-opacity="0"/>
</linearGradient>
<linearGradient id="paint13_linear_1324_399" x1="35.5015" y1="40.0001" x2="35.4087" y2="48.5687" gradientUnits="userSpaceOnUse">
<stop stop-color="#86C985"/>
<stop offset="1" stop-color="#86C985" stop-opacity="0"/>
</linearGradient>
<linearGradient id="paint14_linear_1324_399" x1="25.5014" y1="10" x2="40.0014" y2="37" gradientUnits="userSpaceOnUse">
<stop stop-color="#5C4B53"/>
<stop offset="1" stop-color="#7A646F"/>
</linearGradient>
<linearGradient id="paint15_linear_1324_399" x1="18.5015" y1="9.5" x2="7.50148" y2="42.5" gradientUnits="userSpaceOnUse">
<stop offset="0.00373261" stop-color="#4A3B43"/>
<stop offset="1" stop-color="#826875"/>
</linearGradient>
</defs>
</svg>
