<svg width="48" height="48" viewBox="0 0 48 48" fill="none" xmlns="http://www.w3.org/2000/svg">
<circle cx="23.9988" cy="24" r="24" fill="url(#paint0_radial_1324_1794)"/>
<path d="M18.8155 30.144C18.5275 30.144 18.2935 30.078 18.1135 29.946C17.9455 29.814 17.8435 29.64 17.8075 29.424C17.7715 29.196 17.8135 28.944 17.9335 28.668L22.6855 18.138C22.8415 17.79 23.0275 17.544 23.2435 17.4C23.4715 17.244 23.7295 17.166 24.0175 17.166C24.2935 17.166 24.5395 17.244 24.7555 17.4C24.9835 17.544 25.1755 17.79 25.3315 18.138L30.1015 28.668C30.2335 28.944 30.2815 29.196 30.2455 29.424C30.2095 29.652 30.1075 29.832 29.9395 29.964C29.7715 30.084 29.5495 30.144 29.2735 30.144C28.9375 30.144 28.6735 30.066 28.4815 29.91C28.3015 29.742 28.1395 29.49 27.9955 29.154L26.8255 26.436L27.7975 27.066H20.2015L21.1735 26.436L20.0215 29.154C19.8655 29.502 19.7035 29.754 19.5355 29.91C19.3675 30.066 19.1275 30.144 18.8155 30.144ZM23.9815 19.812L21.4615 25.806L20.9935 25.23H27.0055L26.5555 25.806L24.0175 19.812H23.9815Z" fill="white"/>
<defs>
<radialGradient id="paint0_radial_1324_1794" cx="0" cy="0" r="1" gradientUnits="userSpaceOnUse" gradientTransform="translate(1.49975) rotate(51.0439) scale(58.4341)">
<stop offset="0.360589" stop-color="#DC77FF"/>
<stop offset="1" stop-color="#2BBFFF"/>
</radialGradient>
</defs>
</svg>
